<mxfile host="app.diagrams.net" modified="2023-01-14T06:58:43.870Z" agent="5.0 (X11; Linux x86_64) AppleWebKit/537.36 (KHTML, like Gecko) Chrome/108.0.0.0 Safari/537.36" etag="S-ft2pE28FN4qg5lAE27" version="20.8.5" type="github">
  <diagram id="Hkj4WFlvK4-08UBy-HWi" name="Page-1">
    <mxGraphModel dx="1218" dy="785" grid="1" gridSize="10" guides="1" tooltips="1" connect="1" arrows="1" fold="1" page="1" pageScale="1" pageWidth="850" pageHeight="1100" math="0" shadow="0">
      <root>
        <mxCell id="0" />
        <mxCell id="1" parent="0" />
        <mxCell id="1bVyddex_vhO6T4n7lc5-1" value="Floor: 3" style="text;strokeColor=none;fillColor=none;html=1;fontSize=24;fontStyle=1;verticalAlign=middle;align=center;" parent="1" vertex="1">
          <mxGeometry x="40" y="40" width="100" height="40" as="geometry" />
        </mxCell>
        <mxCell id="1bVyddex_vhO6T4n7lc5-2" value="Room: 7" style="text;strokeColor=none;fillColor=none;html=1;fontSize=24;fontStyle=1;verticalAlign=middle;align=center;" parent="1" vertex="1">
          <mxGeometry x="160" y="40" width="100" height="40" as="geometry" />
        </mxCell>
        <mxCell id="1bVyddex_vhO6T4n7lc5-48" value="Floor: 3" style="text;strokeColor=none;fillColor=none;html=1;fontSize=24;fontStyle=1;verticalAlign=middle;align=center;" parent="1" vertex="1">
          <mxGeometry x="40" y="590" width="100" height="40" as="geometry" />
        </mxCell>
        <mxCell id="1bVyddex_vhO6T4n7lc5-49" value="Room: 8" style="text;strokeColor=none;fillColor=none;html=1;fontSize=24;fontStyle=1;verticalAlign=middle;align=center;" parent="1" vertex="1">
          <mxGeometry x="160" y="590" width="100" height="40" as="geometry" />
        </mxCell>
        <mxCell id="RCOwI89heUn1KIiUQ7MK-1" value="" style="verticalLabelPosition=bottom;html=1;verticalAlign=top;align=center;shape=mxgraph.floorplan.plant;" vertex="1" parent="1">
          <mxGeometry x="90" y="200" width="47" height="51" as="geometry" />
        </mxCell>
        <mxCell id="RCOwI89heUn1KIiUQ7MK-2" value="" style="verticalLabelPosition=bottom;html=1;verticalAlign=top;align=center;shape=mxgraph.floorplan.wall;fillColor=strokeColor;" vertex="1" parent="1">
          <mxGeometry x="420" y="460" width="40" height="10" as="geometry" />
        </mxCell>
        <mxCell id="RCOwI89heUn1KIiUQ7MK-3" value="" style="verticalLabelPosition=bottom;html=1;verticalAlign=top;align=center;shape=mxgraph.floorplan.plant;" vertex="1" parent="1">
          <mxGeometry x="127" y="302" width="47" height="51" as="geometry" />
        </mxCell>
        <mxCell id="RCOwI89heUn1KIiUQ7MK-4" value="" style="verticalLabelPosition=bottom;html=1;verticalAlign=top;align=center;shape=mxgraph.floorplan.plant;" vertex="1" parent="1">
          <mxGeometry x="127" y="353" width="47" height="51" as="geometry" />
        </mxCell>
        <mxCell id="RCOwI89heUn1KIiUQ7MK-5" value="" style="verticalLabelPosition=bottom;html=1;verticalAlign=top;align=center;shape=mxgraph.floorplan.wall;fillColor=strokeColor;" vertex="1" parent="1">
          <mxGeometry x="130" y="460" width="140" height="10" as="geometry" />
        </mxCell>
        <mxCell id="RCOwI89heUn1KIiUQ7MK-6" value="" style="verticalLabelPosition=bottom;html=1;verticalAlign=top;align=center;shape=mxgraph.floorplan.plant;" vertex="1" parent="1">
          <mxGeometry x="129" y="404" width="47" height="51" as="geometry" />
        </mxCell>
        <mxCell id="RCOwI89heUn1KIiUQ7MK-7" value="" style="rounded=0;whiteSpace=wrap;html=1;fillColor=#0F0F0F;" vertex="1" parent="1">
          <mxGeometry x="147" y="200" width="63" height="50" as="geometry" />
        </mxCell>
        <mxCell id="RCOwI89heUn1KIiUQ7MK-8" value="Sea view" style="text;strokeColor=none;fillColor=none;html=1;fontSize=24;fontStyle=0;verticalAlign=middle;align=center;" vertex="1" parent="1">
          <mxGeometry x="300" y="60" width="100" height="40" as="geometry" />
        </mxCell>
        <mxCell id="RCOwI89heUn1KIiUQ7MK-9" value="" style="endArrow=classic;html=1;rounded=0;dashed=1;dashPattern=8 8;" edge="1" parent="1">
          <mxGeometry width="50" height="50" relative="1" as="geometry">
            <mxPoint x="360" y="560" as="sourcePoint" />
            <mxPoint x="360" y="430" as="targetPoint" />
          </mxGeometry>
        </mxCell>
        <mxCell id="RCOwI89heUn1KIiUQ7MK-10" value="entrance" style="edgeLabel;html=1;align=center;verticalAlign=middle;resizable=0;points=[];fontSize=14;" vertex="1" connectable="0" parent="RCOwI89heUn1KIiUQ7MK-9">
          <mxGeometry x="-0.5444" y="-3" relative="1" as="geometry">
            <mxPoint as="offset" />
          </mxGeometry>
        </mxCell>
        <mxCell id="RCOwI89heUn1KIiUQ7MK-11" value="" style="shape=dimension;direction=south;whiteSpace=wrap;html=1;align=left;points=[];verticalAlign=middle;labelBackgroundColor=#ffffff;fillColor=#0F0F0F;" vertex="1" parent="1">
          <mxGeometry x="70" y="200" width="90" height="260" as="geometry" />
        </mxCell>
        <mxCell id="RCOwI89heUn1KIiUQ7MK-12" value="" style="shape=dimension;direction=west;whiteSpace=wrap;html=1;align=center;points=[];verticalAlign=top;spacingTop=-8;labelBackgroundColor=#ffffff;fillColor=#0F0F0F;" vertex="1" parent="1">
          <mxGeometry x="147" y="170" width="63" height="30" as="geometry" />
        </mxCell>
        <mxCell id="RCOwI89heUn1KIiUQ7MK-13" value="" style="endArrow=none;dashed=1;html=1;rounded=0;dashPattern=8 8;exitX=1;exitY=0;exitDx=0;exitDy=0;" edge="1" parent="1" source="RCOwI89heUn1KIiUQ7MK-7">
          <mxGeometry width="50" height="50" relative="1" as="geometry">
            <mxPoint x="480" y="320" as="sourcePoint" />
            <mxPoint x="450" y="200" as="targetPoint" />
          </mxGeometry>
        </mxCell>
        <mxCell id="RCOwI89heUn1KIiUQ7MK-14" value="" style="curved=1;endArrow=none;html=1;rounded=0;dashed=1;dashPattern=8 8;strokeColor=default;endFill=0;" edge="1" parent="1">
          <mxGeometry width="50" height="50" relative="1" as="geometry">
            <mxPoint x="460" y="490" as="sourcePoint" />
            <mxPoint x="480" y="120" as="targetPoint" />
            <Array as="points">
              <mxPoint x="480" y="380" />
              <mxPoint x="410" y="340" />
              <mxPoint x="430" y="240" />
            </Array>
          </mxGeometry>
        </mxCell>
        <mxCell id="RCOwI89heUn1KIiUQ7MK-15" value="" style="shape=dimension;whiteSpace=wrap;html=1;align=center;points=[];verticalAlign=bottom;spacingBottom=-5;labelBackgroundColor=#ffffff;fontSize=14;fillColor=#0F0F0F;" vertex="1" parent="1">
          <mxGeometry x="150" y="470" width="120" height="40" as="geometry" />
        </mxCell>
        <mxCell id="RCOwI89heUn1KIiUQ7MK-16" value="2240" style="text;html=1;strokeColor=none;fillColor=none;align=center;verticalAlign=middle;whiteSpace=wrap;rounded=0;rotation=270;" vertex="1" parent="1">
          <mxGeometry x="20" y="315" width="60" height="30" as="geometry" />
        </mxCell>
        <mxCell id="RCOwI89heUn1KIiUQ7MK-17" value="" style="endArrow=none;dashed=1;html=1;rounded=0;dashPattern=8 8;entryX=0;entryY=1;entryDx=0;entryDy=0;exitX=1;exitY=0.056;exitDx=0;exitDy=0;exitPerimeter=0;" edge="1" parent="1">
          <mxGeometry width="50" height="50" relative="1" as="geometry">
            <mxPoint x="176.92000000000007" y="460" as="sourcePoint" />
            <mxPoint x="174" y="250" as="targetPoint" />
          </mxGeometry>
        </mxCell>
        <mxCell id="RCOwI89heUn1KIiUQ7MK-18" value="" style="verticalLabelPosition=bottom;html=1;verticalAlign=top;align=center;shape=mxgraph.floorplan.plant;" vertex="1" parent="1">
          <mxGeometry x="123" y="251" width="47" height="51" as="geometry" />
        </mxCell>
        <mxCell id="RCOwI89heUn1KIiUQ7MK-19" value="270" style="text;html=1;strokeColor=none;fillColor=none;align=center;verticalAlign=middle;whiteSpace=wrap;rounded=0;" vertex="1" parent="1">
          <mxGeometry x="150" y="140" width="60" height="30" as="geometry" />
        </mxCell>
        <mxCell id="RCOwI89heUn1KIiUQ7MK-20" value="1290" style="text;html=1;strokeColor=none;fillColor=none;align=center;verticalAlign=middle;whiteSpace=wrap;rounded=0;" vertex="1" parent="1">
          <mxGeometry x="174" y="475" width="60" height="30" as="geometry" />
        </mxCell>
        <mxCell id="RCOwI89heUn1KIiUQ7MK-21" value="150" style="shape=dimension;whiteSpace=wrap;html=1;align=center;points=[];verticalAlign=bottom;spacingBottom=-5;labelBackgroundColor=#ffffff" vertex="1" parent="1">
          <mxGeometry x="174" y="251" width="36" height="39" as="geometry" />
        </mxCell>
        <mxCell id="RCOwI89heUn1KIiUQ7MK-22" value="" style="endArrow=none;dashed=1;html=1;rounded=0;dashPattern=8 8;entryX=0;entryY=1;entryDx=0;entryDy=0;exitX=1;exitY=0.056;exitDx=0;exitDy=0;exitPerimeter=0;" edge="1" parent="1">
          <mxGeometry width="50" height="50" relative="1" as="geometry">
            <mxPoint x="149.92000000000007" y="461" as="sourcePoint" />
            <mxPoint x="147" y="251" as="targetPoint" />
          </mxGeometry>
        </mxCell>
        <mxCell id="RCOwI89heUn1KIiUQ7MK-23" value="" style="shape=dimension;direction=north;whiteSpace=wrap;html=1;align=right;points=[];verticalAlign=middle;labelBackgroundColor=#ffffff" vertex="1" parent="1">
          <mxGeometry x="210" y="200" width="40" height="50" as="geometry" />
        </mxCell>
        <mxCell id="RCOwI89heUn1KIiUQ7MK-24" value="270" style="text;html=1;strokeColor=none;fillColor=none;align=center;verticalAlign=middle;whiteSpace=wrap;rounded=0;rotation=270;" vertex="1" parent="1">
          <mxGeometry x="207" y="210.5" width="60" height="30" as="geometry" />
        </mxCell>
        <mxCell id="RCOwI89heUn1KIiUQ7MK-26" value="" style="verticalLabelPosition=bottom;html=1;verticalAlign=top;align=center;shape=mxgraph.floorplan.plant;" vertex="1" parent="1">
          <mxGeometry x="130" y="740" width="47" height="51" as="geometry" />
        </mxCell>
        <mxCell id="RCOwI89heUn1KIiUQ7MK-27" value="" style="verticalLabelPosition=bottom;html=1;verticalAlign=top;align=center;shape=mxgraph.floorplan.wall;fillColor=strokeColor;" vertex="1" parent="1">
          <mxGeometry x="460" y="1000" width="40" height="10" as="geometry" />
        </mxCell>
        <mxCell id="RCOwI89heUn1KIiUQ7MK-28" value="" style="verticalLabelPosition=bottom;html=1;verticalAlign=top;align=center;shape=mxgraph.floorplan.plant;" vertex="1" parent="1">
          <mxGeometry x="167" y="842" width="47" height="51" as="geometry" />
        </mxCell>
        <mxCell id="RCOwI89heUn1KIiUQ7MK-29" value="" style="verticalLabelPosition=bottom;html=1;verticalAlign=top;align=center;shape=mxgraph.floorplan.plant;" vertex="1" parent="1">
          <mxGeometry x="167" y="893" width="47" height="51" as="geometry" />
        </mxCell>
        <mxCell id="RCOwI89heUn1KIiUQ7MK-30" value="" style="verticalLabelPosition=bottom;html=1;verticalAlign=top;align=center;shape=mxgraph.floorplan.wall;fillColor=strokeColor;" vertex="1" parent="1">
          <mxGeometry x="170" y="1000" width="140" height="10" as="geometry" />
        </mxCell>
        <mxCell id="RCOwI89heUn1KIiUQ7MK-31" value="" style="verticalLabelPosition=bottom;html=1;verticalAlign=top;align=center;shape=mxgraph.floorplan.plant;" vertex="1" parent="1">
          <mxGeometry x="169" y="944" width="47" height="51" as="geometry" />
        </mxCell>
        <mxCell id="RCOwI89heUn1KIiUQ7MK-32" value="" style="rounded=0;whiteSpace=wrap;html=1;fillColor=#0F0F0F;" vertex="1" parent="1">
          <mxGeometry x="187" y="740" width="63" height="50" as="geometry" />
        </mxCell>
        <mxCell id="RCOwI89heUn1KIiUQ7MK-33" value="Sea view" style="text;strokeColor=none;fillColor=none;html=1;fontSize=24;fontStyle=0;verticalAlign=middle;align=center;" vertex="1" parent="1">
          <mxGeometry x="330" y="650" width="100" height="40" as="geometry" />
        </mxCell>
        <mxCell id="RCOwI89heUn1KIiUQ7MK-34" value="" style="endArrow=classic;html=1;rounded=0;dashed=1;dashPattern=8 8;" edge="1" parent="1">
          <mxGeometry width="50" height="50" relative="1" as="geometry">
            <mxPoint x="390" y="1050" as="sourcePoint" />
            <mxPoint x="390" y="950" as="targetPoint" />
          </mxGeometry>
        </mxCell>
        <mxCell id="RCOwI89heUn1KIiUQ7MK-35" value="entrance" style="edgeLabel;html=1;align=center;verticalAlign=middle;resizable=0;points=[];fontSize=14;" vertex="1" connectable="0" parent="RCOwI89heUn1KIiUQ7MK-34">
          <mxGeometry x="-0.5444" y="-3" relative="1" as="geometry">
            <mxPoint as="offset" />
          </mxGeometry>
        </mxCell>
        <mxCell id="RCOwI89heUn1KIiUQ7MK-36" value="" style="shape=dimension;direction=south;whiteSpace=wrap;html=1;align=left;points=[];verticalAlign=middle;labelBackgroundColor=#ffffff;fillColor=#0F0F0F;" vertex="1" parent="1">
          <mxGeometry x="110" y="740" width="90" height="260" as="geometry" />
        </mxCell>
        <mxCell id="RCOwI89heUn1KIiUQ7MK-37" value="" style="shape=dimension;direction=west;whiteSpace=wrap;html=1;align=center;points=[];verticalAlign=top;spacingTop=-8;labelBackgroundColor=#ffffff;fillColor=#0F0F0F;" vertex="1" parent="1">
          <mxGeometry x="187" y="710" width="63" height="30" as="geometry" />
        </mxCell>
        <mxCell id="RCOwI89heUn1KIiUQ7MK-38" value="" style="endArrow=none;dashed=1;html=1;rounded=0;dashPattern=8 8;exitX=1;exitY=0;exitDx=0;exitDy=0;" edge="1" parent="1" source="RCOwI89heUn1KIiUQ7MK-32">
          <mxGeometry width="50" height="50" relative="1" as="geometry">
            <mxPoint x="520" y="860" as="sourcePoint" />
            <mxPoint x="490" y="740" as="targetPoint" />
          </mxGeometry>
        </mxCell>
        <mxCell id="RCOwI89heUn1KIiUQ7MK-39" value="" style="curved=1;endArrow=none;html=1;rounded=0;dashed=1;dashPattern=8 8;strokeColor=default;endFill=0;" edge="1" parent="1">
          <mxGeometry width="50" height="50" relative="1" as="geometry">
            <mxPoint x="500" y="1030" as="sourcePoint" />
            <mxPoint x="520" y="660" as="targetPoint" />
            <Array as="points">
              <mxPoint x="520" y="920" />
              <mxPoint x="450" y="880" />
              <mxPoint x="470" y="780" />
            </Array>
          </mxGeometry>
        </mxCell>
        <mxCell id="RCOwI89heUn1KIiUQ7MK-40" value="" style="shape=dimension;whiteSpace=wrap;html=1;align=center;points=[];verticalAlign=bottom;spacingBottom=-5;labelBackgroundColor=#ffffff;fontSize=14;fillColor=#0F0F0F;" vertex="1" parent="1">
          <mxGeometry x="190" y="1010" width="120" height="40" as="geometry" />
        </mxCell>
        <mxCell id="RCOwI89heUn1KIiUQ7MK-41" value="2480" style="text;html=1;strokeColor=none;fillColor=none;align=center;verticalAlign=middle;whiteSpace=wrap;rounded=0;rotation=270;" vertex="1" parent="1">
          <mxGeometry x="60" y="855" width="60" height="30" as="geometry" />
        </mxCell>
        <mxCell id="RCOwI89heUn1KIiUQ7MK-42" value="" style="endArrow=none;dashed=1;html=1;rounded=0;dashPattern=8 8;entryX=0;entryY=1;entryDx=0;entryDy=0;exitX=1;exitY=0.056;exitDx=0;exitDy=0;exitPerimeter=0;" edge="1" parent="1">
          <mxGeometry width="50" height="50" relative="1" as="geometry">
            <mxPoint x="216.92000000000007" y="1000" as="sourcePoint" />
            <mxPoint x="214" y="790" as="targetPoint" />
          </mxGeometry>
        </mxCell>
        <mxCell id="RCOwI89heUn1KIiUQ7MK-43" value="" style="verticalLabelPosition=bottom;html=1;verticalAlign=top;align=center;shape=mxgraph.floorplan.plant;" vertex="1" parent="1">
          <mxGeometry x="163" y="791" width="47" height="51" as="geometry" />
        </mxCell>
        <mxCell id="RCOwI89heUn1KIiUQ7MK-44" value="260" style="text;html=1;strokeColor=none;fillColor=none;align=center;verticalAlign=middle;whiteSpace=wrap;rounded=0;" vertex="1" parent="1">
          <mxGeometry x="190" y="680" width="60" height="30" as="geometry" />
        </mxCell>
        <mxCell id="RCOwI89heUn1KIiUQ7MK-45" value="1280" style="text;html=1;strokeColor=none;fillColor=none;align=center;verticalAlign=middle;whiteSpace=wrap;rounded=0;" vertex="1" parent="1">
          <mxGeometry x="214" y="1015" width="60" height="30" as="geometry" />
        </mxCell>
        <mxCell id="RCOwI89heUn1KIiUQ7MK-46" value="150" style="shape=dimension;whiteSpace=wrap;html=1;align=center;points=[];verticalAlign=bottom;spacingBottom=-5;labelBackgroundColor=#ffffff" vertex="1" parent="1">
          <mxGeometry x="214" y="791" width="36" height="40" as="geometry" />
        </mxCell>
        <mxCell id="RCOwI89heUn1KIiUQ7MK-47" value="" style="endArrow=none;dashed=1;html=1;rounded=0;dashPattern=8 8;entryX=0;entryY=1;entryDx=0;entryDy=0;exitX=1;exitY=0.056;exitDx=0;exitDy=0;exitPerimeter=0;" edge="1" parent="1">
          <mxGeometry width="50" height="50" relative="1" as="geometry">
            <mxPoint x="189.92000000000007" y="1001" as="sourcePoint" />
            <mxPoint x="187" y="791" as="targetPoint" />
          </mxGeometry>
        </mxCell>
        <mxCell id="RCOwI89heUn1KIiUQ7MK-48" value="" style="shape=dimension;direction=north;whiteSpace=wrap;html=1;align=right;points=[];verticalAlign=middle;labelBackgroundColor=#ffffff" vertex="1" parent="1">
          <mxGeometry x="250" y="740" width="40" height="50" as="geometry" />
        </mxCell>
        <mxCell id="RCOwI89heUn1KIiUQ7MK-49" value="300" style="text;html=1;strokeColor=none;fillColor=none;align=center;verticalAlign=middle;whiteSpace=wrap;rounded=0;rotation=270;" vertex="1" parent="1">
          <mxGeometry x="247" y="750.5" width="60" height="30" as="geometry" />
        </mxCell>
      </root>
    </mxGraphModel>
  </diagram>
</mxfile>
